<?xml version="1.0" encoding="UTF-8" standalone="no"?>
<!DOCTYPE svg PUBLIC "-//W3C//DTD SVG 1.1//EN" "http://www.w3.org/Graphics/SVG/1.1/DTD/svg11.dtd">
<svg version="1.1" xmlns="http://www.w3.org/2000/svg" xmlns:xlink="http://www.w3.org/1999/xlink" preserveAspectRatio="xMidYMid meet" viewBox="0 0 640 640" width="640" height="640"><defs><path d="M580.16 149.18L581.11 149.86L582.03 150.57L582.94 151.29L583.82 152.04L584.69 152.8L585.53 153.59L586.35 154.39L587.15 155.21L587.93 156.05L588.69 156.91L589.42 157.79L590.14 158.68L590.82 159.58L591.49 160.51L592.13 161.45L592.75 162.4L593.35 163.37L593.92 164.35L594.47 165.35L595 166.36L595.5 167.38L595.97 168.41L596.42 169.46L596.84 170.51L597.24 171.58L597.62 172.66L597.96 173.74L598.28 174.84L598.58 175.94L598.84 177.06L599.08 178.18L599.3 179.31L599.48 180.45L599.64 181.59L599.77 182.74L599.87 183.89L599.94 185.05L599.99 186.22L600 187.39L599.99 188.56L599.94 189.72L599.87 190.88L599.77 192.04L599.64 193.19L599.48 194.33L599.3 195.47L599.08 196.6L598.84 197.72L598.58 198.83L598.28 199.94L597.96 201.03L597.62 202.12L597.24 203.2L596.84 204.27L596.42 205.32L595.97 206.37L595.5 207.4L595 208.42L594.47 209.43L593.92 210.43L593.35 211.41L592.75 212.38L592.13 213.33L591.49 214.27L590.82 215.19L590.14 216.1L589.42 216.99L588.69 217.87L587.93 218.72L587.15 219.56L586.35 220.39L585.53 221.19L584.69 221.97L583.82 222.74L582.94 223.48L582.03 224.21L581.11 224.91L580.16 225.6L579.2 226.26L450 312.39L75 312.39L73.97 312.37L72.95 312.31L71.94 312.2L70.94 312.06L69.96 311.88L68.99 311.66L68.04 311.41L67.1 311.11L66.17 310.79L65.27 310.42L64.38 310.03L63.51 309.6L62.66 309.14L61.83 308.64L61.02 308.12L60.24 307.57L59.47 306.98L58.73 306.37L58.01 305.73L57.32 305.07L56.66 304.38L56.02 303.66L55.41 302.92L54.82 302.15L54.27 301.37L53.75 300.56L53.25 299.73L52.79 298.88L52.36 298.01L51.96 297.12L51.6 296.21L51.27 295.29L50.98 294.35L50.73 293.4L50.51 292.43L50.33 291.44L50.19 290.45L50.08 289.44L50.02 288.42L50 287.39L50 87.39L50.02 86.36L50.08 85.34L50.19 84.33L50.33 83.33L50.51 82.35L50.73 81.38L50.98 80.43L51.27 79.49L51.6 78.56L51.96 77.66L52.36 76.77L52.79 75.9L53.25 75.05L53.75 74.22L54.27 73.41L54.82 72.62L55.41 71.86L56.02 71.12L56.66 70.4L57.32 69.71L58.01 69.05L58.73 68.41L59.47 67.8L60.24 67.21L61.02 66.66L61.83 66.13L62.66 65.64L63.51 65.18L64.38 64.75L65.27 64.35L66.17 63.99L67.1 63.66L68.04 63.37L68.99 63.12L69.96 62.9L70.94 62.72L71.94 62.57L72.95 62.47L73.97 62.41L75 62.39L450 62.39L579.2 148.52L580.16 149.18ZM492.13 152.5L490.72 152.65L489.32 152.85L487.95 153.1L486.59 153.41L485.25 153.76L483.94 154.17L482.64 154.63L481.38 155.14L480.13 155.69L478.92 156.3L477.73 156.94L476.56 157.63L475.43 158.37L474.33 159.14L473.26 159.96L472.22 160.81L471.22 161.71L470.25 162.64L469.32 163.61L468.43 164.61L467.57 165.65L466.75 166.72L465.98 167.82L465.24 168.95L464.55 170.11L463.91 171.3L463.31 172.52L462.75 173.77L462.24 175.03L461.78 176.33L461.38 177.64L461.02 178.98L460.71 180.34L460.46 181.71L460.26 183.11L460.12 184.52L460.03 185.95L460 187.39L460.03 188.83L460.12 190.26L460.26 191.67L460.46 193.07L460.71 194.44L461.02 195.8L461.38 197.14L461.78 198.45L462.24 199.74L462.75 201.01L463.31 202.26L463.91 203.47L464.55 204.66L465.24 205.83L465.98 206.96L466.75 208.06L467.57 209.13L468.43 210.17L469.32 211.17L470.25 212.14L471.22 213.07L472.22 213.96L473.26 214.82L474.33 215.64L475.43 216.41L476.56 217.15L477.73 217.84L478.92 218.48L480.13 219.08L481.38 219.64L482.64 220.15L483.94 220.6L485.25 221.01L486.59 221.37L487.95 221.68L489.32 221.93L490.72 222.13L492.13 222.27L493.56 222.36L495 222.39L496.44 222.36L497.87 222.27L499.28 222.13L500.68 221.93L502.05 221.68L503.41 221.37L504.75 221.01L506.06 220.6L507.36 220.15L508.62 219.64L509.87 219.08L511.08 218.48L512.27 217.84L513.44 217.15L514.57 216.41L515.67 215.64L516.74 214.82L517.78 213.96L518.78 213.07L519.75 212.14L520.68 211.17L521.57 210.17L522.43 209.13L523.25 208.06L524.02 206.96L524.76 205.83L525.45 204.66L526.09 203.47L526.69 202.26L527.25 201.01L527.76 199.74L528.22 198.45L528.62 197.14L528.98 195.8L529.29 194.44L529.54 193.07L529.74 191.67L529.88 190.26L529.97 188.83L530 187.39L529.97 185.95L529.88 184.52L529.74 183.11L529.54 181.71L529.29 180.34L528.98 178.98L528.62 177.64L528.22 176.33L527.76 175.03L527.25 173.77L526.69 172.52L526.09 171.3L525.45 170.11L524.76 168.95L524.02 167.82L523.25 166.72L522.43 165.65L521.57 164.61L520.68 163.61L519.75 162.64L518.78 161.71L517.78 160.81L516.74 159.96L515.67 159.14L514.57 158.37L513.44 157.63L512.27 156.94L511.08 156.3L509.87 155.69L508.62 155.14L507.36 154.63L506.06 154.17L504.75 153.76L503.41 153.41L502.05 153.1L500.68 152.85L499.28 152.65L497.87 152.5L496.44 152.42L495 152.39L493.56 152.42L492.13 152.5Z" id="bartJNcgGU"></path><path d="M549.46 111.25L550.62 111.37L551.77 111.52L552.92 111.69L554.06 111.9L555.19 112.13L556.31 112.38L557.42 112.67L558.53 112.98L559.62 113.32L560.71 113.68L561.78 114.07L562.84 114.49L563.89 114.93L564.93 115.4L565.96 115.89L566.97 116.4L567.98 116.95L568.96 117.51L569.94 118.1L570.89 118.71L571.84 119.34L572.76 120L573.68 120.68L574.57 121.38L575.45 122.11L576.31 122.86L577.16 123.62L577.98 124.41L578.79 125.22L579.58 126.05L580.35 126.91L581.09 127.78L581.82 128.67L582.53 129.58L583.22 130.51L583.88 131.46L584.53 132.43L585.15 133.42L585.74 134.42L586.32 135.44L586.86 136.47L587.38 137.51L587.87 138.57L588.33 139.62L588.77 140.69L589.17 141.77L589.55 142.85L589.91 143.95L590.23 145.04L590.53 146.15L590.8 147.26L591.05 148.37L591.26 149.49L591.45 150.62L591.61 151.74L591.74 152.87L591.85 154.01L591.93 155.14L591.98 156.27L592 157.41L592 158.55L591.96 159.69L591.9 160.82L591.81 161.96L591.7 163.09L591.56 164.22L591.38 165.35L591.19 166.47L590.96 167.59L590.7 168.71L590.42 169.82L590.11 170.93L589.77 172.03L589.41 173.13L589.02 174.21L588.59 175.29L588.14 176.36L587.67 177.43L587.16 178.48L518.34 317.68L193.58 505.18L192.68 505.67L191.76 506.13L190.84 506.54L189.9 506.92L188.96 507.25L188.01 507.55L187.06 507.81L186.1 508.02L185.14 508.2L184.17 508.34L183.2 508.44L182.23 508.5L181.27 508.53L180.3 508.52L179.34 508.47L178.38 508.38L177.43 508.26L176.48 508.1L175.54 507.9L174.61 507.67L173.69 507.41L172.78 507.11L171.88 506.77L170.99 506.4L170.12 506L169.26 505.56L168.42 505.08L167.59 504.58L166.78 504.04L166 503.47L165.23 502.87L164.48 502.23L163.76 501.56L163.06 500.86L162.39 500.13L161.74 499.37L161.12 498.58L160.53 497.76L159.96 496.91L159.43 496.03L59.43 322.82L58.93 321.92L58.48 321L58.06 320.08L57.68 319.14L57.35 318.2L57.05 317.25L56.8 316.3L56.58 315.34L56.4 314.38L56.26 313.41L56.16 312.44L56.1 311.48L56.08 310.51L56.09 309.54L56.14 308.58L56.22 307.62L56.35 306.67L56.51 305.72L56.7 304.78L56.93 303.85L57.2 302.93L57.5 302.02L57.83 301.12L58.2 300.23L58.61 299.36L59.05 298.5L59.52 297.66L60.03 296.83L60.56 296.02L61.13 295.24L61.74 294.47L62.37 293.72L63.04 293L63.74 292.3L64.47 291.63L65.23 290.98L66.02 290.36L66.85 289.77L67.7 289.2L68.58 288.67L393.34 101.17L548.29 111.16L549.46 111.25ZM491.84 152.04L490.48 152.18L489.13 152.38L487.78 152.63L486.44 152.93L485.1 153.29L483.77 153.7L482.46 154.17L481.15 154.7L479.85 155.28L478.57 155.92L477.31 156.61L476.08 157.36L474.88 158.15L473.73 158.98L472.62 159.85L471.56 160.75L470.53 161.7L469.56 162.68L468.62 163.69L467.73 164.73L466.89 165.81L466.09 166.91L465.33 168.04L464.63 169.19L463.97 170.37L463.35 171.57L462.79 172.8L462.27 174.04L461.8 175.3L461.38 176.57L461 177.86L460.68 179.17L460.41 180.48L460.18 181.81L460.01 183.14L459.89 184.49L459.82 185.83L459.81 187.19L459.84 188.54L459.93 189.89L460.07 191.25L460.26 192.6L460.51 193.95L460.82 195.29L461.17 196.63L461.59 197.96L462.06 199.28L462.58 200.58L463.16 201.88L463.8 203.16L464.5 204.42L465.25 205.66L466.04 206.85L466.87 208L467.73 209.11L468.64 210.18L469.59 211.2L470.56 212.18L471.58 213.11L472.62 214L473.69 214.85L474.8 215.65L475.93 216.4L477.08 217.11L478.26 217.77L479.46 218.38L480.68 218.95L481.92 219.47L483.18 219.94L484.46 220.36L485.75 220.73L487.06 221.05L488.37 221.33L489.7 221.55L491.03 221.72L492.37 221.84L493.72 221.91L495.07 221.93L496.43 221.89L497.78 221.8L499.14 221.66L500.49 221.47L501.84 221.22L503.18 220.92L504.52 220.56L505.85 220.14L507.16 219.68L508.47 219.15L509.77 218.57L511.05 217.93L512.31 217.23L513.55 216.49L514.74 215.7L515.89 214.87L517 214L518.06 213.09L519.09 212.15L520.06 211.17L521 210.16L521.89 209.11L522.73 208.04L523.53 206.94L524.29 205.81L524.99 204.65L525.66 203.47L526.27 202.27L526.84 201.05L527.35 199.81L527.82 198.55L528.25 197.27L528.62 195.98L528.94 194.68L529.21 193.36L529.44 192.03L529.61 190.7L529.73 189.36L529.8 188.01L529.82 186.66L529.78 185.31L529.69 183.95L529.55 182.6L529.36 181.24L529.11 179.9L528.8 178.55L528.45 177.22L528.03 175.89L527.56 174.57L527.04 173.26L526.46 171.97L525.82 170.69L525.12 169.42L524.37 168.19L523.59 166.99L522.76 165.84L521.89 164.73L520.98 163.67L520.03 162.65L519.06 161.67L518.04 160.73L517 159.84L515.93 159L514.83 158.2L513.7 157.45L512.54 156.74L511.36 156.08L510.16 155.46L508.94 154.9L507.7 154.38L506.44 153.91L505.16 153.49L503.87 153.12L502.56 152.79L501.25 152.52L499.92 152.3L498.59 152.12L497.25 152L495.9 151.93L494.55 151.92L493.19 151.95L491.84 152.04Z" id="c33LEJEwb4"></path><path d="M527.03 90.07L528.16 90.15L529.3 90.26L530.43 90.39L531.55 90.55L532.68 90.74L533.8 90.95L534.91 91.2L536.02 91.47L537.12 91.77L538.22 92.09L539.31 92.45L540.4 92.83L541.48 93.23L542.54 93.67L543.6 94.13L544.66 94.62L545.7 95.14L546.73 95.68L547.75 96.26L548.75 96.85L549.74 97.47L550.71 98.12L551.66 98.78L552.59 99.47L553.5 100.18L554.39 100.91L555.26 101.65L556.11 102.42L556.95 103.21L557.76 104.02L558.55 104.84L559.31 105.69L560.06 106.55L560.79 107.43L561.49 108.32L562.17 109.24L562.83 110.16L563.46 111.11L564.07 112.06L564.66 113.04L565.22 114.02L565.76 115.03L566.28 116.04L566.77 117.07L567.24 118.11L567.68 119.16L568.1 120.22L568.49 121.29L568.85 122.38L569.19 123.47L569.5 124.58L569.78 125.69L570.04 126.81L570.27 127.94L570.48 129.08L570.65 130.23L570.8 131.38L570.92 132.54L571.01 133.71L581 288.66L393.5 613.42L392.97 614.3L392.4 615.15L391.81 615.98L391.19 616.77L390.54 617.53L389.87 618.26L389.17 618.96L388.45 619.63L387.7 620.26L386.93 620.87L386.15 621.44L385.34 621.97L384.51 622.48L383.67 622.95L382.81 623.39L381.94 623.8L381.05 624.17L380.15 624.5L379.24 624.8L378.32 625.07L377.39 625.3L376.45 625.49L375.5 625.65L374.55 625.78L373.59 625.86L372.63 625.91L371.66 625.92L370.69 625.9L369.73 625.84L368.76 625.74L367.79 625.6L366.83 625.42L365.87 625.2L364.92 624.95L363.97 624.65L363.02 624.32L362.09 623.94L361.17 623.52L360.25 623.07L359.35 622.57L186.14 522.57L185.26 522.04L184.41 521.47L183.59 520.88L182.8 520.26L182.03 519.61L181.3 518.94L180.61 518.24L179.94 517.52L179.3 516.77L178.7 516L178.13 515.22L177.59 514.41L177.08 513.58L176.61 512.74L176.17 511.88L175.77 511.01L175.4 510.12L175.06 509.22L174.76 508.31L174.5 507.39L174.27 506.46L174.07 505.52L173.91 504.57L173.79 503.62L173.7 502.66L173.65 501.7L173.64 500.73L173.67 499.77L173.73 498.8L173.83 497.83L173.97 496.86L174.15 495.9L174.36 494.94L174.62 493.99L174.91 493.04L175.25 492.1L175.62 491.16L176.04 490.24L176.5 489.32L176.99 488.42L364.49 163.66L503.69 94.84L504.74 94.33L505.8 93.86L506.88 93.41L507.96 92.98L509.04 92.59L510.14 92.23L511.24 91.89L512.35 91.58L513.46 91.3L514.57 91.04L515.7 90.81L516.82 90.62L517.95 90.44L519.08 90.3L520.21 90.19L521.35 90.1L522.48 90.04L523.62 90L524.76 90L525.89 90.02L527.03 90.07ZM492.81 152.27L491.47 152.39L490.13 152.56L488.81 152.79L487.49 153.06L486.19 153.38L484.9 153.75L483.62 154.18L482.36 154.65L481.12 155.16L479.9 155.73L478.7 156.34L477.52 157.01L476.36 157.71L475.23 158.47L474.13 159.27L473.06 160.11L472.01 161L471 161.94L470.02 162.91L469.08 163.94L468.17 165L467.3 166.11L466.47 167.26L465.68 168.45L464.94 169.69L464.24 170.95L463.6 172.23L463.02 173.53L462.49 174.84L462.02 176.15L461.61 177.48L461.25 178.82L460.95 180.16L460.7 181.51L460.51 182.86L460.36 184.22L460.28 185.57L460.24 186.93L460.26 188.28L460.33 189.63L460.45 190.97L460.62 192.3L460.84 193.63L461.12 194.94L461.44 196.25L461.81 197.54L462.23 198.82L462.7 200.08L463.22 201.32L463.79 202.54L464.4 203.74L465.06 204.92L465.77 206.07L466.52 207.2L467.32 208.31L468.17 209.38L469.06 210.42L469.99 211.44L470.97 212.41L471.99 213.36L473.06 214.27L474.17 215.13L475.32 215.96L476.51 216.75L477.75 217.5L479.01 218.2L480.29 218.84L481.59 219.42L482.89 219.94L484.21 220.41L485.54 220.83L486.88 221.18L488.22 221.49L489.57 221.74L490.92 221.93L492.27 222.07L493.63 222.16L494.98 222.19L496.34 222.18L497.68 222.11L499.02 221.99L500.36 221.82L501.69 221.59L503 221.32L504.31 221L505.6 220.62L506.87 220.2L508.13 219.73L509.37 219.21L510.6 218.65L511.8 218.03L512.98 217.37L514.13 216.67L515.26 215.91L516.36 215.11L517.44 214.27L518.48 213.38L519.49 212.44L520.47 211.47L521.42 210.44L522.32 209.38L523.19 208.27L524.02 207.12L524.81 205.92L525.56 204.69L526.25 203.43L526.89 202.15L527.47 200.85L528 199.54L528.47 198.23L528.88 196.9L529.24 195.56L529.54 194.22L529.79 192.87L529.99 191.52L530.13 190.16L530.22 188.81L530.25 187.45L530.23 186.1L530.17 184.75L530.04 183.41L529.87 182.08L529.65 180.75L529.38 179.44L529.05 178.13L528.68 176.84L528.26 175.56L527.79 174.3L527.27 173.06L526.71 171.84L526.09 170.64L525.43 169.46L524.72 168.3L523.97 167.17L523.17 166.07L522.33 165L521.44 163.96L520.5 162.94L519.52 161.97L518.5 161.02L517.43 160.11L516.33 159.24L515.17 158.41L513.98 157.63L512.75 156.88L511.48 156.18L510.2 155.54L508.91 154.96L507.6 154.44L506.28 153.97L504.95 153.55L503.62 153.2L502.27 152.89L500.93 152.64L499.57 152.45L498.22 152.31L496.86 152.22L495.51 152.18L494.16 152.2L492.81 152.27Z" id="coHI6ONul"></path></defs><g><g><g><use xlink:href="#bartJNcgGU" opacity="1" fill="#cc1f39" fill-opacity="1"></use><g><use xlink:href="#bartJNcgGU" opacity="1" fill-opacity="0" stroke="#000000" stroke-width="1" stroke-opacity="1"></use></g></g><g><use xlink:href="#c33LEJEwb4" opacity="1" fill="#3dcc1f" fill-opacity="1"></use><g><use xlink:href="#c33LEJEwb4" opacity="1" fill-opacity="0" stroke="#000000" stroke-width="1" stroke-opacity="1"></use></g></g><g><use xlink:href="#coHI6ONul" opacity="1" fill="#1f2fcc" fill-opacity="1"></use><g><use xlink:href="#coHI6ONul" opacity="1" fill-opacity="0" stroke="#000000" stroke-width="1" stroke-opacity="1"></use></g></g></g></g></svg>